<?xml version="1.0" standalone="no"?>
<!DOCTYPE svg PUBLIC "-//W3C//DTD SVG 20010904//EN"
 "http://www.w3.org/TR/2001/REC-SVG-20010904/DTD/svg10.dtd">
<svg version="1.0" xmlns="http://www.w3.org/2000/svg"
 width="256.000000pt" height="256.000000pt" viewBox="0 0 256.000000 256.000000"
 preserveAspectRatio="xMidYMid meet">

<g transform="translate(0.000000,256.000000) scale(0.100000,-0.100000)"
fill="#000000" stroke="none">
<path d="M1030 2449 c-377 -79 -697 -342 -851 -699 -194 -449 -93 -968 255
-1316 553 -553 1475 -437 1875 236 84 141 144 326 157 483 l7 79 -619 619
-619 619 -55 -1 c-30 0 -98 -9 -150 -20z m2 -637 c103 -103 108 -110 108 -150
0 -38 -6 -48 -65 -111 l-65 -69 52 -78 c66 -100 240 -274 342 -342 l78 -52 69
65 c63 59 73 65 111 65 40 0 47 -5 151 -109 108 -108 108 -108 105 -152 -3
-42 -7 -47 -117 -141 -132 -114 -141 -117 -278 -69 -269 93 -613 400 -784 699
-52 91 -98 221 -99 278 0 43 5 51 138 202 60 67 66 72 105 72 39 0 47 -6 149
-108z m462 3 c110 -29 207 -108 260 -213 34 -68 55 -184 37 -206 -31 -37 -71
-8 -71 53 0 54 -41 143 -89 194 -55 59 -124 96 -194 104 -64 7 -87 18 -87 41
0 44 46 52 144 27z m-31 -181 c26 -9 64 -33 87 -56 71 -72 91 -205 28 -196
-25 4 -35 20 -43 71 -8 49 -62 104 -112 113 -52 9 -73 21 -73 42 0 43 38 52
113 26z"/>
</g>
</svg>
