<?xml version="1.0" standalone="no"?>
<!DOCTYPE svg PUBLIC "-//W3C//DTD SVG 20010904//EN"
 "http://www.w3.org/TR/2001/REC-SVG-20010904/DTD/svg10.dtd">
<svg version="1.0" xmlns="http://www.w3.org/2000/svg"
 width="1920.000000pt" height="1920.000000pt" viewBox="0 0 1920.000000 1920.000000"
 preserveAspectRatio="xMidYMid meet">

<g transform="translate(0.000000,1920.000000) scale(0.100000,-0.100000)"
fill="#000000" stroke="none">
<path d="M3700 19183 c-30 -2 -118 -10 -195 -19 -1149 -127 -2187 -760 -2830
-1724 -382 -572 -598 -1194 -654 -1883 -15 -174 -15 -11785 -1 -11942 99
-1093 616 -2064 1461 -2744 579 -467 1252 -748 2034 -848 133 -17 435 -18
5980 -21 4159 -2 5886 0 6000 8 539 37 1004 159 1472 385 416 202 744 435
1073 765 440 439 747 932 947 1515 90 265 147 517 190 850 16 121 17 543 21
5915 3 5903 3 6003 -34 6290 -64 509 -218 983 -457 1415 -585 1055 -1608 1785
-2784 1985 -340 58 177 54 -6268 55 -3245 1 -5925 0 -5955 -2z m1721 -8132
c95 -32 152 -67 207 -125 108 -114 172 -325 124 -412 -9 -17 -179 -204 -377
-415 -349 -371 -1186 -1267 -1289 -1379 l-51 -55 800 -5 800 -5 66 -32 c82
-41 170 -132 211 -219 33 -70 60 -191 56 -243 l-3 -36 -1168 -3 -1167 -2 -95
44 c-153 72 -241 173 -280 321 -18 70 -19 161 -2 192 7 12 77 91 157 175 80
85 454 480 831 878 377 399 700 742 718 763 l33 37 -718 0 c-782 0 -793 1
-896 57 -64 35 -143 120 -173 185 -32 71 -75 222 -75 264 l0 34 1118 0 c1066
0 1121 -1 1173 -19z m1977 -1 c306 -49 528 -149 755 -338 353 -293 553 -785
507 -1247 -41 -421 -247 -790 -580 -1041 -105 -80 -334 -195 -455 -229 -128
-37 -345 -75 -423 -75 -66 0 -84 3 -285 40 -275 52 -519 178 -724 373 -181
174 -312 380 -387 610 -135 414 -74 884 160 1244 231 356 563 574 999 657 161
30 269 32 433 6z m3167 -5 c408 -75 714 -260 949 -572 82 -108 196 -335 231
-458 61 -212 75 -457 40 -660 -79 -456 -367 -851 -772 -1058 -141 -72 -252
-109 -442 -147 -180 -36 -260 -37 -419 -9 -271 47 -420 102 -612 226 -339 220
-562 552 -642 958 -31 155 -30 405 1 555 63 300 192 541 401 750 219 219 476
352 805 414 173 33 287 33 460 1z m1554 0 c139 -35 210 -60 313 -111 48 -24
99 -44 113 -44 14 0 62 18 106 40 303 153 634 171 935 50 138 -55 296 -162
399 -269 21 -22 42 -41 45 -41 3 0 40 33 81 74 124 121 287 218 444 264 101
30 281 62 346 62 74 0 258 -34 361 -66 384 -120 674 -441 783 -865 l35 -136
-2 -939 -3 -939 -45 1 c-71 1 -198 31 -265 63 -113 52 -177 127 -211 246 -15
54 -17 132 -18 810 l-1 750 -23 70 c-48 145 -150 279 -273 361 -351 233 -817
52 -913 -356 -14 -56 -16 -196 -16 -992 0 -509 -3 -933 -6 -942 -8 -21 -30
-20 -149 5 -173 36 -273 96 -329 198 -54 101 -56 121 -56 920 0 822 2 790 -73
935 -79 153 -243 282 -408 321 -192 45 -402 -13 -549 -152 -82 -77 -128 -148
-167 -258 l-28 -80 -5 -795 -5 -795 -27 -57 c-35 -75 -95 -138 -165 -176 -58
-30 -196 -69 -285 -79 l-48 -6 0 1477 c0 812 2 1476 4 1476 1 0 49 -11 105
-25z"/>
<path d="M7026 10515 c-389 -81 -685 -385 -746 -768 -16 -95 -8 -302 14 -381
91 -326 336 -573 661 -668 102 -29 314 -36 426 -13 440 89 751 467 751 915 0
242 -87 458 -256 638 -116 123 -255 206 -431 257 -113 33 -310 43 -419 20z"/>
<path d="M10166 10515 c-375 -78 -661 -358 -742 -728 -26 -115 -22 -300 9
-419 77 -294 295 -536 578 -639 288 -105 594 -72 839 92 98 66 226 195 278
282 331 550 53 1236 -566 1398 -102 27 -300 34 -396 14z"/>
</g>
</svg>
